<svg width="640" height="420" viewBox="0 0 640 420" fill="none" xmlns="http://www.w3.org/2000/svg">
  <g>
    <path d="M120 74C89 74 66 95 66 125C66 151 83 170 114 178L186 197C200 201 206 207 206 219C206 233 195 240 176 240H82V278H184C227 278 249 257 249 219C249 182 229 160 190 149L120 130C111 128 104 122 104 114C104 103 112 98 127 98H242V74H120Z" fill="#000080"/>
    <rect x="277" y="74" width="34" height="204" fill="#50C878"/>
    <rect x="367" y="74" width="34" height="204" fill="#000080"/>
    <rect x="489" y="74" width="34" height="204" fill="#000080"/>
    <rect x="401" y="160" width="88" height="34" fill="#000080"/>
  </g>
  <g>
    <path d="M320 112C303 122 283 124 266 124V157C266 193 289 224 320 243V112Z" fill="#000080"/>
    <path d="M320 112C337 122 357 124 374 124V157C374 193 351 224 320 243V112Z" fill="#50C878"/>
    <path d="M320 112C303 122 283 124 266 124V157C266 193 289 224 320 243C351 224 374 193 374 157V124C357 124 337 122 320 112Z" stroke="white" stroke-width="10" stroke-linejoin="round"/>
    <path d="M291 169L314 193L354 151" stroke="white" stroke-width="12" stroke-linecap="round" stroke-linejoin="round"/>
  </g>
  <g>
    <text x="160" y="366" font-family="Montserrat, Roboto, Arial, sans-serif" font-size="86" font-weight="700" fill="#000080">SyH</text>
    <text x="372" y="366" font-family="Montserrat, Roboto, Arial, sans-serif" font-size="86" font-weight="500" fill="#50C878">Pro</text>
  </g>
</svg>
